<svg width="64" height="64" fill="#ecc94b" version="1.1" viewBox="0 0 100 100" xmlns="http://www.w3.org/2000/svg" class="mx-auto" data-v-17a399fe=""><path d="m95.855 65.809-9.1992-21.133c-0.066406-0.14453-0.097656-0.30859-0.097656-0.46875-0.13281-22.523-18.457-40.738-41.039-40.738-22.668 0-41.039 18.352-41.039 40.988 0 13.824 6.8555 26.051 17.355 33.477 0.42187 0.29297 0.67578 0.77344 0.67578 1.2891v17.309h46.297v-9.5195c0-0.86719 0.70312-1.5703 1.5703-1.5703h11.984c0.62891 0 1.1484-0.47266 1.2109-1.0938 0.24609-2.4414 0.86719-8.6836 1.4766-15.723 0.054688-0.62891 0.58203-1.1094 1.2109-1.1094h8.4805c0.875 0 1.4648-0.90625 1.1133-1.707zm-51.375-54.523c12.887-0.50391 24.539 6.4883 29.906 17.32 1.0312 2.082 1.8945 4.2617 2.3516 6.3984l-18.684-0.003906-1.5195-4.6484c-0.21484-0.66016-0.84375-1.0898-1.5391-1.0625-0.69531 0.03125-1.2812 0.52344-1.4375 1.1992l-2.1367 9.3164-1.957-7.4648c-0.17578-0.66797-0.76953-1.1367-1.4609-1.1523-0.67969-0.019531-1.3047 0.42969-1.5117 1.0898l-1.0312 3.3359-3.0742-19.562c-0.12109-0.77344-0.79688-1.332-1.582-1.3047-0.78125 0.027344-1.418 0.63672-1.4844 1.4141l-2.3633 28.055-2.7617-16.578c-0.12109-0.73828-0.75781-1.2812-1.5039-1.293h-0.019531c-0.74219 0-1.3789 0.52734-1.5195 1.2539l-1.6992 8.8477-1.0938-7.0859c-0.10938-0.71484-0.70312-1.2578-1.4219-1.3047-0.71875-0.046876-1.3789 0.41016-1.5859 1.1016l-1.7344 5.8438h-9.0352c3.6289-13.219 15.473-23.152 29.898-23.715zm12.938 38.582c-5.3555 0.1875-17.199 3.5898-15.926 14.273 1.125 9.4492-12.578 11.523-14.227 1.4922-2.043-12.414-13.164-4.1641-13.812-20.797-0.089844-2.3047 0.066406-4.5586 0.4375-6.7422h10.875c0.68359 0 1.2891-0.44922 1.4805-1.1055l0.10156-0.34375 1.4062 9.1055c0.11328 0.74219 0.74609 1.2969 1.5 1.3086h0.027344c0.73828 0 1.3789-0.52344 1.5195-1.2539l1.7578-9.1523 3.375 20.246c0.125 0.74609 0.77344 1.293 1.5234 1.293h0.0625c0.77734-0.03125 1.4141-0.63672 1.4766-1.4141l2.3242-27.574 2.1172 13.473c0.11328 0.71094 0.69922 1.25 1.4141 1.3008 0.71875 0.050782 1.375-0.39844 1.5898-1.0859l1.4023-4.5312 2.1836 8.3203c0.17969 0.67969 0.79297 1.1523 1.4961 1.1523h0.023437c0.71094-0.011719 1.3242-0.50781 1.4844-1.1992l2.2969-10.023 0.13672 0.42188c0.20703 0.63672 0.80078 1.0664 1.4688 1.0664h20.164c0.019532 6.1055-4.5156 11.234-19.68 11.77z" data-v-17a399fe=""></path></svg>