<svg width="64" height="64" fill="#ecc94b" version="1.1" viewBox="0 0 100 100" xmlns="http://www.w3.org/2000/svg" data-v-2743b535=""><path d="m98.898 43.398c0 1.5-1.1992 2.6992-2.6992 2.6992l-11.199 0.003906c-1.5 0-2.6992-1.1992-2.6992-2.6992v-0.10156c0-1.5 1.1992-2.6992 2.6992-2.6992h11.199c1.5 0 2.6992 1.1992 2.6992 2.7969zm-5.7969-16.199l-10.602 4.1992c-1.3008 0.5-2 2-1.6016 3.3984 0.5 1.5 2.1016 2.3008 3.6016 1.6992l10.602-4.1992c1.3008-0.5 2-2 1.6016-3.3984-0.50391-1.5-2.1016-2.2969-3.6016-1.6992zm-10.602 28.102l10.602 4.1992c1.5 0.60156 3.1016-0.19922 3.6016-1.6992 0.39844-1.3984-0.30078-2.8008-1.6016-3.3984l-10.602-4.1992c-1.5-0.60156-3.1016 0.19922-3.6016 1.6992-0.5 1.3984 0.20312 2.8984 1.6016 3.3984zm-6.5-11.5c0 4.3984-2.8008 8.1016-6.6016 9.6016v17.699c0 1.6016-1.1016 3-2.6992 3.1992-1.8008 0.19922-3.3008-1.1016-3.3984-2.8008-9.6992-9.1992-23.5-12.699-31.898-14.102v2.8984h-6.3008l3.1992 24.703-1.1992 0.30078-4 0.89844-1.1992 0.30078-7.8984-26.199h-1.6992c-3.8008 0-6.8984-3.1016-6.8984-6.8984v-2.6016h-2.0078c-1.3008 0-2.3008-1-2.3008-2.3008v-8.6016c0-1.3008 1-2.3008 2.3008-2.3008h2.1016v-3.1016c0-3.8008 3.1016-6.8984 6.8984-6.8984h19.102v2.8984c8.3984-1.3984 22.199-4.8984 31.898-14.102 0.10156-1.6992 1.6016-3 3.3984-2.8008 1.6016 0.19922 2.6992 1.6016 2.6992 3.1992v17.602c3.8047 1.3047 6.5039 5.0039 6.5039 9.4062zm-51.801-9h-11.5v18.199h11.5z" data-v-2743b535=""></path></svg>