<svg width="64" height="64" fill="#ecc94b" version="1.1" viewBox="0 0 100 100" xmlns="http://www.w3.org/2000/svg" data-v-2743b535=""><g data-v-2743b535=""><path d="m62.398 36.699c-0.80078-4.1992-2.8008-8.1992-6.1016-11.5-8.6016-8.6016-22.602-8.6016-31.301 0-8.6016 8.6016-8.6016 22.602 0 31.301 3.3984 3.3984 7.6992 5.5 12.102 6.1992l-2.3008-7c-2-0.80078-3.8008-2-5.3984-3.5-6.1992-6.1992-6.1992-16.301 0-22.5 6.1992-6.1992 16.301-6.1992 22.5 0 1.3984 1.3984 2.5 3 3.1992 4.6992z" data-v-2743b535=""></path> <path d="m42.5 78.898l-2-6.1016c-8.1016 0-16.199-3.1016-22.5-9.3008-12.5-12.5-12.398-32.699 0-45.199 12.5-12.5 32.699-12.5 45.199 0 6 6 9.1016 13.898 9.3008 21.801l6.1992 2.1016c0.39844-10.199-3.3984-20.5-11.102-28.301-14.898-14.898-39.102-14.898-54 0-14.898 14.898-14.898 39.102 0 54 8.0039 7.9023 18.602 11.602 28.902 11z" data-v-2743b535=""></path> <path d="m41.301 36.199c-1.3984-0.5-2.8984-0.10156-3.8984 0.89844s-1.3984 2.5-0.89844 3.8984l18 54.102c0.89844 2.6992 4.6016 2.8984 5.8984 0.39844l11-22.898c0.30078-0.60156 0.80078-1.1992 1.5-1.5l22.898-11c2.6016-1.1992 2.3008-5-0.39844-5.8984z" data-v-2743b535=""></path></g></svg>