<svg width="64" height="64" fill="#ecc94b" version="1.1" viewBox="0 0 100 100" xmlns="http://www.w3.org/2000/svg" data-v-2743b535=""><path d="m87.5 52.082c-15.742-30.555-55.094-30.555-70.832 0 15.738 30.559 55.09 30.559 70.832 0zm-35.418 14.586c8.0547 0 14.586-6.5312 14.586-14.586 0-8.0547-6.5312-14.582-14.586-14.582-8.0547 0-14.582 6.5273-14.582 14.582 0 8.0547 6.5273 14.586 14.582 14.586zm1-22.859c-0.62891 0.85938-1 1.9219-1 3.0664 0 2.875 2.332 5.207 5.2109 5.207 1.1445 0 2.2031-0.36719 3.0664-0.99609 0.039063 0.32812 0.058594 0.66016 0.058594 0.99609 0 4.6055-3.7305 8.3359-8.3359 8.3359-4.6016 0-8.332-3.7305-8.332-8.3359 0-4.6016 3.7305-8.332 8.332-8.332 0.33984 0 0.67188 0.019531 1 0.058594z" fill-rule="evenodd" data-v-2743b535=""></path></svg>