<svg width="64" height="64" fill="#ecc94b" version="1.1" viewBox="0 0 100 100" xmlns="http://www.w3.org/2000/svg" class="mx-auto" data-v-2743b535=""><path d="m87.5 9.375h-75c-1.7266 0-3.125 1.3984-3.125 3.125v75c0 1.7266 1.3984 3.125 3.125 3.125h75c1.7266 0 3.125-1.3984 3.125-3.125v-75c0-1.7266-1.3984-3.125-3.125-3.125zm-9.375 68.75c1.7266 0 3.125 1.3984 3.125 3.125s-1.3984 3.125-3.125 3.125h-12.5c-1.7266 0-3.125-1.3984-3.125-3.125s1.3984-3.125 3.125-3.125h3.125v-25h-37.5v25h3.125c1.7266 0 3.125 1.3984 3.125 3.125s-1.3984 3.125-3.125 3.125h-12.5c-1.7266 0-3.125-1.3984-3.125-3.125s1.3984-3.125 3.125-3.125h3.125v-56.25h-3.125c-1.7266 0-3.125-1.3984-3.125-3.125s1.3984-3.125 3.125-3.125h12.5c1.7266 0 3.125 1.3984 3.125 3.125s-1.3984 3.125-3.125 3.125h-3.125v25h37.5v-25h-3.125c-1.7266 0-3.125-1.3984-3.125-3.125s1.3984-3.125 3.125-3.125h12.5c1.7266 0 3.125 1.3984 3.125 3.125s-1.3984 3.125-3.125 3.125h-3.125v56.25z" data-v-2743b535=""></path></svg>