<svg width="64" height="64" fill="#ecc94b" version="1.1" viewBox="0 0 100 100" xmlns="http://www.w3.org/2000/svg" class="mx-auto" data-v-17a399fe=""><g data-v-17a399fe=""><path d="m4.0898 68.637c1.0625 1.0586 0.30469 2.7266-1.0586 2.7266s-1.9688-1.668-1.0625-2.5742c0.60547-0.60547 1.5156-0.75781 2.1211-0.15234z" data-v-17a399fe=""></path> <path d="m8.9375 73.484c1.0625 1.0625 0.15234 2.5742-1.0625 2.5742-1.3633 0-1.9688-1.668-1.0625-2.5742 0.61328-0.60547 1.5195-0.60547 2.125 0z" data-v-17a399fe=""></path> <path d="m26.516 91.062c1.0625 1.0625 0.15234 2.5742-1.0625 2.5742-1.3633 0-1.9688-1.668-1.0625-2.5742 0.45703-0.60938 1.5195-0.60938 2.125 0z" data-v-17a399fe=""></path> <path d="m6.668 66.211c-0.60547-0.60547-0.60547-1.5156 0-2.1211l3.4844-3.4844c0.60547-0.60547 1.5156-0.60547 2.1211 0 0.60547 0.60547 0.60547 1.5156 0 2.1211l-3.4844 3.4844c-0.60547 0.60547-1.5156 0.60547-2.1211 0z" data-v-17a399fe=""></path> <path d="m20.758 61.816c0.60547 0.60547 0.60547 1.5156 0 2.1211l-7.1211 7.125c-0.60547 0.60547-1.5156 0.60547-2.1211 0s-0.60547-1.5156 0-2.1211l7.1211-7.1211c0.45312-0.60937 1.5156-0.60937 2.1211-0.003906z" data-v-17a399fe=""></path> <path d="m31.363 95.91c0.60547 0.60547 0.60547 1.5156 0 2.1211s-1.5156 0.60547-2.1211 0c-0.60547-0.60547-0.60547-1.5156 0-2.1211 0.45312-0.60547 1.5156-0.60547 2.1211 0z" data-v-17a399fe=""></path> <path d="m28.938 88.484c-0.60547-0.60547-0.60547-1.5156 0-2.1211l7.1211-7.1211c0.60547-0.60547 1.5156-0.60547 2.1211 0 0.60547 0.60547 0.60547 1.5156 0 2.1211l-7.1211 7.1211c-0.45312 0.60547-1.5117 0.60547-2.1211 0z" data-v-17a399fe=""></path> <path d="m39.547 87.727c0.60547 0.60547 0.60547 1.5156 0 2.1211l-3.4844 3.4844c-0.60547 0.60547-1.5156 0.60547-2.1211 0-0.60547-0.60547-0.60547-1.5156 0-2.1211l3.4844-3.4844c0.60547-0.60547 1.5117-0.60547 2.1211 0z" data-v-17a399fe=""></path> <path d="m55.305 46.516-9.8516 31.211c-0.15234 0.60547-0.75781 1.0625-1.3633 1.0625-0.60547 0-1.2109-0.30469-1.3633-0.91016l-4.0898-8.332-8.332 8.332c-0.60547 0.60547-1.5156 0.60547-2.1211 0l-5.9102-5.9102c-0.60547-0.60547-0.60547-1.5156 0-2.1211l8.332-8.332-8.332-4.0898c-0.60547-0.30469-0.91016-0.91016-0.91016-1.5156 0-0.60547 0.45312-1.2109 1.0625-1.3633l31.211-9.8477c0.60547-0.15234 1.2109 0 1.5156 0.45312 0.30078 0.30078 0.45312 0.91016 0.15234 1.3633z" data-v-17a399fe=""></path> <path d="m69.848 11.516c-14.395 0-23.18 15.758-16.059 27.879l6.8164 6.8164c12.273 7.1211 27.879-1.8164 27.879-16.062 0-10.301-8.332-18.633-18.637-18.633zm0 17.121c3.7891 0 6.8164 3.0312 6.8164 6.9688 0 3.332-2.2734 6.0625-5.4531 6.668v1.6641c0 0.91016-0.60547 1.5156-1.5156 1.5156-0.75781 0-1.5156-0.60547-1.5156-1.5156v-1.668c-3.0312-0.75781-5.3047-3.4844-5.3047-6.668 0-0.91016 0.60547-1.5156 1.5156-1.5156 0.75781 0 1.5156 0.60547 1.5156 1.5156 0 2.1211 1.668 3.7891 3.7891 3.9375 2.1211 0 3.7891-1.8164 3.7891-3.9375 0-2.1211-1.668-3.9375-3.7891-3.9375-3.7891 0-6.9688-3.1836-6.9688-6.9688 0-3.332 2.2734-6.0625 5.3047-6.8164v-1.5156c0-0.91016 0.75781-1.5156 1.5156-1.5156 0.91016 0 1.5156 0.60547 1.5156 1.5156v1.5156c3.0312 0.75781 5.4531 3.4844 5.4531 6.8164 0 0.75781-0.60547 1.5156-1.5156 1.5156-0.75781 0-1.5156-0.75781-1.5156-1.5156 0-2.1211-1.668-3.9375-3.7891-3.9375-2.1211 0-3.9375 1.668-3.9375 3.9375 0.30469 2.1211 1.9688 3.9414 4.0898 3.9414z" data-v-17a399fe=""></path> <path d="m69.848 1.5156c-21.516 0-35.152 22.879-25.453 41.668 0.15234 0.30469 0.15234 0.30469 0.75781 0.91016l6.8164-2.1211c-0.45312-0.45312-0.60547-0.60547-0.75781-0.75781-8.4844-14.246 1.8203-32.73 18.637-32.73 11.969 0 21.668 9.6953 21.668 21.668 0 12.426-10.305 21.668-21.668 21.668-3.7891 0-7.5742-1.0625-10.91-3.0312-0.15234-0.15234-0.30469-0.30469-0.75781-0.75781l-2.1211 6.8164 0.45312 0.45312c0.75781 0.75781 6.668 3.4844 13.332 3.4844 15 0 28.637-12.121 28.637-28.637 0.003906-15.754-12.875-28.633-28.633-28.633z" data-v-17a399fe=""></path></g></svg>